<svg width="18" height="18" viewBox="0 0 18 18" fill="none" xmlns="http://www.w3.org/2000/svg">
<path fill-rule="evenodd" clip-rule="evenodd" d="M11.9235 11.194H12.7279L17.0449 15.5289C17.4624 15.9461 17.4624 16.6279 17.0449 17.0451C16.6275 17.4623 15.9453 17.4623 15.5279 17.0451L11.2006 12.7204V11.9165L10.9257 11.6316C9.50024 12.8527 7.55552 13.4836 5.48862 13.1376C2.65808 12.6593 0.397726 10.2986 0.0515459 7.44933C-0.477907 3.14496 3.14681 -0.477627 7.4537 0.0515156C10.3046 0.397493 12.6668 2.65652 13.1453 5.4854C13.4915 7.55109 12.8602 9.49467 11.6384 10.9193L11.9235 11.194ZM6.61886 11.892C9.53222 11.892 11.894 9.53027 11.894 6.6169C11.894 3.70354 9.53222 1.3418 6.61886 1.3418C3.7055 1.3418 1.34375 3.70354 1.34375 6.6169C1.34375 9.53027 3.7055 11.892 6.61886 11.892Z" fill="white"/>
</svg>
